PathFileType	4	(x/y/z)	Passive_Pref0007.trc
DataRate	CameraRate	NumFrames	NumMarkers	Units	OrigDataRate	OrigDataStartFrame	OrigNumFrames
240	240	4	50	mm	240	75	299
Frame#	Time	R_AC			L_AC			HEAD			STERN			C7			L_IC			R_IC			L_ASIS			R_ASIS			L_GT			R_GT			R_PSIS			L_PSIS			SACRAL			L_LAT_KNEE			L_MED_KNEE			R_LAT_KNEE			R_MED_KNEE			L_LAT_ANK			L_MED_ANK			R_LAT_ANK			R_MED_ANK			L_THIGH_PROX_POST			L_THIGH_PROX_ANT			L_THIGH_DIST_ANT			L_THIGH_DIST_POST			R_THIGH_PROX_POST			R_THIGH_PROX_ANT			R_THIGH_DIST_ANT			R_THIGH_DIST_POST			L_SHANK_PROX_POST			L_SHANK_PROX_ANT			L_SHANK_DIST_ANT			L_SHANK_DIST_POST			R_SHANK_PROX_POST			R_SHANK_PROX_ANT			R_SHANK_DIST_ANT			R_SHANK_DIST_POST			L_HEEL_LAT			L_HEEL_SUP			L_HEEL_MED			R_HEEL_LAT			R_HEEL_SUP			R_HEEL_MED			L_1ST_MET			L_5TH_MET			L_TOE			R_1ST_MET			R_5TH_MET			R_TOE			
		X1	Y1	Z1	X2	Y2	Z2	X3	Y3	Z3	X4	Y4	Z4	X5	Y5	Z5	X6	Y6	Z6	X7	Y7	Z7	X8	Y8	Z8	X9	Y9	Z9	X10	Y10	Z10	X11	Y11	Z11	X12	Y12	Z12	X13	Y13	Z13	X14	Y14	Z14	X15	Y15	Z15	X16	Y16	Z16	X17	Y17	Z17	X18	Y18	Z18	X19	Y19	Z19	X20	Y20	Z20	X21	Y21	Z21	X22	Y22	Z22	X23	Y23	Z23	X24	Y24	Z24	X25	Y25	Z25	X26	Y26	Z26	X27	Y27	Z27	X28	Y28	Z28	X29	Y29	Z29	X30	Y30	Z30	X31	Y31	Z31	X32	Y32	Z32	X33	Y33	Z33	X34	Y34	Z34	X35	Y35	Z35	X36	Y36	Z36	X37	Y37	Z37	X38	Y38	Z38	X39	Y39	Z39	X40	Y40	Z40	X41	Y41	Z41	X42	Y42	Z42	X43	Y43	Z43	X44	Y44	Z44	X45	Y45	Z45	X46	Y46	Z46	X47	Y47	Z47	X48	Y48	Z48	X49	Y49	Z49	X50	Y50	Z50	

75	0.30937	-421.81	1538.3	459.28	-423.48	1549.6	54.015	-350.34	1854	266.59	-336.28	1490.1	267.82	-488.75	1585.6	259.33	-449.02	1109.4	106.4	-448.78	1137	446.18	-376.2	1039.8	139.69	-376.71	1049.5	410.75	-481.79	958.73	93.643	-473.04	964.94	460.15	-591.86	1039.6	318.96	-597.5	1045.8	234.06	-603.78	1009.2	273.1	-442.69	555.67	126.7	-419.75	570.33	263.13	-345.43	569.31	471.45	-311.68	562.66	335.97	-490.11	115.85	162.5	-502.54	117.38	243.97	-645.38	234.02	395.15	-586.2	230.13	305.91	-441.14	791.46	99.508	-378.22	789.5	125.79	-377.69	717.5	135.22	-437.62	715.37	111.32	-468.5	808.46	446.45	-415.08	830.63	475.09	-395.83	757.51	475.25	-439.23	738.53	447.4	-439.85	500.77	140.65	-386.02	528.71	152.59	-385.51	462.3	168.09	-436.34	438.9	145.98	-468.49	474.84	459.47	-423.72	438.2	465.04	-472.08	381.5	448.91	-516.06	415.05	441.52	-548.68	50.105	160.36	-568.88	77.754	191.36	-566.25	50.036	228.66	-721.49	249.15	340.54	-692.98	266.42	309.81	-687.74	228.85	286.53	-352	40.712	283.8	-349.23	40.675	164.79	-290.21	66.419	248.35	-537.98	85.756	338.19	-598.74	108.37	439.72	-506.9	67.081	404.62
76	0.31355	-417.21	1538.6	459.4	-418.21	1550	54.148	-345.2	1854.3	267	-331.4	1490.4	268	-483.78	1585.9	259.35	-444.55	1109.6	106.36	-443.95	1137.4	446.15	-371.77	1039.9	139.48	-371.9	1050	410.54	-477.67	958.96	93.732	-467.83	965.54	460.34	-587.23	1039.9	319.34	-592.84	1046.1	234.45	-599.1	1009.5	273.48	-440.71	555.77	126.67	-417.68	570.33	263.11	-336.91	570.67	471.32	-303.64	564.35	335.8	-489.86	116.1	162.49	-502.47	117.55	243.87	-631.77	229.99	395.54	-572.57	227.4	306.15	-437.88	791.63	99.518	-374.93	789.3	125.73	-374.76	717.31	135.16	-434.71	715.46	111.26	-462.07	808.97	447.03	-408.68	831.65	475.37	-388.85	758.68	475.6	-432.28	739.26	448	-438.08	500.86	140.63	-384.13	528.61	152.56	-383.85	462.18	168.06	-434.8	438.98	145.96	-458.88	474.1	459.64	-413.49	438.21	465.07	-460.93	380.68	449	-505.49	413.51	441.8	-548.56	50.335	160.34	-568.6	77.943	191.38	-566.19	50.279	228.67	-708.28	243.34	341.2	-680.37	261.28	310.33	-674.29	223.81	287.1	-351.98	40.59	283.73	-349.14	40.603	164.8	-290.08	66.177	248.34	-520.94	84.385	338.39	-582.07	105.51	440.06	-489.35	66.459	404.76
77	0.31773	-412.58	1538.8	459.52	-412.94	1550.4	54.284	-340.08	1854.5	267.4	-326.51	1490.6	268.18	-478.8	1586.2	259.38	-440.1	1109.8	106.32	-439.1	1137.8	446.12	-367.35	1039.9	139.27	-367.07	1050.5	410.33	-473.56	959.16	93.837	-462.63	966.11	460.54	-582.61	1040.2	319.73	-588.2	1046.4	234.85	-594.44	1009.8	273.88	-438.7	555.88	126.68	-415.57	570.33	263.11	-328.49	571.98	471.17	-295.75	565.98	335.6	-489.6	116.37	162.48	-502.39	117.72	243.79	-618.06	225.87	395.94	-558.84	224.57	306.41	-434.61	791.78	99.557	-371.62	789.1	125.72	-371.8	717.11	135.13	-431.77	715.54	111.23	-455.66	809.47	447.62	-402.29	832.65	475.66	-381.9	759.82	475.95	-425.4	739.97	448.61	-436.27	500.95	140.64	-382.22	528.52	152.55	-382.17	462.07	168.05	-433.22	439.06	145.96	-449.34	473.29	459.79	-403.33	438.17	465.09	-449.79	379.82	449.1	-494.94	411.88	442.05	-548.45	50.573	160.33	-568.3	78.134	191.39	-566.08	50.51	228.68	-694.91	237.39	341.84	-667.61	255.98	310.84	-660.66	218.63	287.66	-351.96	40.469	283.66	-349.06	40.534	164.8	-289.96	65.934	248.34	-503.79	83.005	338.67	-565.29	102.65	440.47	-471.73	65.872	404.99
78	0.32191	-407.92	1539.1	459.64	-407.68	1550.8	54.425	-334.97	1854.7	267.81	-321.61	1490.8	268.34	-473.81	1586.4	259.42	-435.68	1109.9	106.29	-434.25	1138.2	446.11	-362.94	1040	139.07	-362.24	1050.9	410.12	-469.44	959.33	93.956	-457.43	966.65	460.74	-577.99	1040.4	320.14	-583.56	1046.7	235.27	-589.8	1010	274.29	-436.67	555.99	126.71	-413.43	570.32	263.15	-320.2	573.26	470.99	-288	567.55	335.4	-489.35	116.65	162.48	-502.29	117.89	243.72	-604.24	221.67	396.35	-544.99	221.65	306.69	-431.33	791.9	99.625	-368.31	788.9	125.76	-368.83	716.91	135.13	-428.83	715.62	111.23	-449.28	809.95	448.23	-395.91	833.62	475.96	-374.98	760.92	476.31	-418.57	740.67	449.22	-434.44	501.05	140.67	-380.27	528.42	152.58	-380.47	461.95	168.07	-431.62	439.14	145.99	-439.86	472.4	459.92	-393.24	438.08	465.11	-438.68	378.9	449.2	-484.41	410.18	442.28	-548.33	50.82	160.31	-568	78.329	191.41	-565.92	50.73	228.69	-681.37	231.31	342.46	-654.69	250.53	311.33	-646.86	213.33	288.24	-351.95	40.349	283.58	-348.97	40.471	164.81	-289.83	65.691	248.34	-486.55	81.627	339.04	-548.43	99.799	440.93	-454.05	65.329	405.33
